<svg xmlns="http://www.w3.org/2000/svg" width="12.49" height="7.026" viewBox="0 0 12.49 7.026">
  <g id="view" transform="translate(-1 -15)">
    <path id="Path_9" data-name="Path 9" d="M7.245,15A7.812,7.812,0,0,0,1,18.513c3.454,4.684,9.036,4.684,12.49,0A7.812,7.812,0,0,0,7.245,15Zm-.781,1.952a.781.781,0,1,1-.781.781A.783.783,0,0,1,6.464,16.952Zm.781,3.9A6.341,6.341,0,0,1,2.5,18.513a7.049,7.049,0,0,1,2.713-1.952A2.194,2.194,0,0,0,4.9,17.732a2.342,2.342,0,1,0,4.371-1.171,7.109,7.109,0,0,1,2.713,1.952A6.341,6.341,0,0,1,7.245,20.855Z" fill="rgba(51,79,101,0.5)"/>
  </g>
</svg>
